<svg xmlns="http://www.w3.org/2000/svg" xmlns:xlink="http://www.w3.org/1999/xlink" viewBox="130 95 115 200" preserveAspectRatio="xMidYMid meet"><defs><clipPath id="vad"><rect x="0" width="109" y="0" height="186"/></clipPath><clipPath id="vad2"><rect x="0" width="104" y="0" height="187"/></clipPath></defs><g transform="matrix(1,0,0,1,133,140)"><g clip-path="url(#vad)"><g fill="#000000" fill-opacity="1"><g transform="translate(0.632891,146.377696)"><path d="M 53.78125 0 L 53.78125 -0.140625 L 4.25 -92.25 L 29.796875 -92.25 L 53.9375 -46.265625 L 77.921875 -92.25 L 103.46875 -92.25 L 53.9375 -0.140625 Z"/></g></g></g></g><g transform="matrix(1,0,0,1,135,48)"><g clip-path="url(#vad2)"><g fill="#000000" fill-opacity="1"><g transform="translate(1.471545,146.692725)"><path d="M 75.078125 0 L 68.40625 -12.921875 L 33.640625 -12.921875 L 26.96875 0 L 1.421875 0 L 51.09375 -92.25 L 100.625 0 Z M 59.46875 -30.234375 L 51.09375 -46.40625 L 42.578125 -30.234375 Z"/></g></g></g></g></svg>
